HIERARCHY
ROOT Hips
{
	OFFSET 55.489799 -3.865194 83.751701
	CHANNELS 6 Xposition Yposition Zposition Xrotation Yrotation Zrotation
	JOINT spine
	{
		OFFSET 0.000000 -0.342408 5.954384
		CHANNELS 3 Xrotation Yrotation Zrotation
		JOINT spine1
		{
			OFFSET 0.000000 -0.000001 8.856018
			CHANNELS 3 Xrotation Yrotation Zrotation
			JOINT spine2
			{
				OFFSET 0.000000 -0.000001 8.485672
				CHANNELS 3 Xrotation Yrotation Zrotation
				JOINT Neck
				{
					OFFSET 0.000000 -1.038703 21.786301
					CHANNELS 3 Xrotation Yrotation Zrotation
					JOINT Head
					{
						OFFSET 0.000000 -0.000001 6.582199
						CHANNELS 3 Xrotation Yrotation Zrotation
						End Site
						{
							OFFSET 0.000000 5.254357 15.932602
						}
					}
				}
				JOINT RightShoulder
				{
					OFFSET -3.573071 0.497524 9.163864
					CHANNELS 3 Xrotation Yrotation Zrotation
					JOINT RightArm
					{
						OFFSET 0.000000 -0.000002 12.019196
						CHANNELS 3 Xrotation Yrotation Zrotation
						JOINT RightArmRoll
						{
							OFFSET 0.000000 -0.000001 6.067551
							CHANNELS 3 Xrotation Yrotation Zrotation
							JOINT RightForeArm
							{
								OFFSET 0.000000 -0.000003 17.672592
								CHANNELS 3 Xrotation Yrotation Zrotation
								JOINT RightForeArmRoll
								{
									OFFSET 0.000000 -0.000001 6.808731
									CHANNELS 3 Xrotation Yrotation Zrotation
									JOINT RightHand
									{
										OFFSET 0.000000 -0.000002 13.663605
										CHANNELS 3 Xrotation Yrotation Zrotation
										End Site
										{
											OFFSET 0.000000 0.000000 0.100006
										}
									}
								}
							}
						}
					}
				}
				JOINT LeftShoulder
				{
					OFFSET 3.573071 0.497524 9.163864
					CHANNELS 3 Xrotation Yrotation Zrotation
					JOINT LeftArm
					{
						OFFSET 0.000000 -0.000002 12.019196
						CHANNELS 3 Xrotation Yrotation Zrotation
						JOINT LeftArmRoll
						{
							OFFSET 0.000000 -0.000001 6.067551
							CHANNELS 3 Xrotation Yrotation Zrotation
							JOINT LeftForeArm
							{
								OFFSET 0.000000 -0.000003 17.672592
								CHANNELS 3 Xrotation Yrotation Zrotation
								JOINT LeftForeArmRoll
								{
									OFFSET 0.000000 -0.000001 6.808731
									CHANNELS 3 Xrotation Yrotation Zrotation
									JOINT LeftHand
									{
										OFFSET 0.000000 -0.000002 13.663605
										CHANNELS 3 Xrotation Yrotation Zrotation
										End Site
										{
											OFFSET 0.000000 0.000000 0.100006
										}
									}
								}
							}
						}
					}
				}
			}
		}
	}
	JOINT RightUpLeg
	{
		OFFSET -5.277740 0.811858 -0.967796
		CHANNELS 3 Xrotation Yrotation Zrotation
		JOINT RightUpLegRoll
		{
			OFFSET 0.000000 -0.000003 16.021400
			CHANNELS 3 Xrotation Yrotation Zrotation
			JOINT RightLeg
			{
				OFFSET 0.000000 0.000003 -19.840096
				CHANNELS 3 Xrotation Yrotation Zrotation
				JOINT RightLegRoll
				{
					OFFSET 0.000000 -0.000003 19.904999
					CHANNELS 3 Xrotation Yrotation Zrotation
					JOINT RightFoot
					{
						OFFSET 0.000000 -0.000003 16.567497
						CHANNELS 3 Xrotation Yrotation Zrotation
						JOINT RightToeBase
						{
							OFFSET 0.000000 -0.000002 13.849602
							CHANNELS 3 Xrotation Yrotation Zrotation
							End Site
							{
								OFFSET 0.005871 0.773116 6.707275
							}
						}
					}
				}
			}
		}
	}
	JOINT LeftUpLeg
	{
		OFFSET 5.277740 0.811858 -0.967796
		CHANNELS 3 Xrotation Yrotation Zrotation
		JOINT LeftUpLegRoll
		{
			OFFSET 0.000000 -0.000003 16.021500
			CHANNELS 3 Xrotation Yrotation Zrotation
			JOINT LeftLeg
			{
				OFFSET 0.000000 -0.000003 19.839996
				CHANNELS 3 Xrotation Yrotation Zrotation
				JOINT LeftLegRoll
				{
					OFFSET 0.000000 -0.000003 20.089005
					CHANNELS 3 Xrotation Yrotation Zrotation
					JOINT LeftFoot
					{
						OFFSET 0.000000 -0.000003 16.383499
						CHANNELS 3 Xrotation Yrotation Zrotation
						JOINT LeftToeBase
						{
							OFFSET 0.000000 -0.000002 13.849594
							CHANNELS 3 Xrotation Yrotation Zrotation
							End Site
							{
								OFFSET -0.026310 0.773116 6.707275
							}
						}
					}
				}
			}
		}
	}
}
MOTION
Frames: 6
Frame Time: 0.041667
52.049603 -5.110394 84.035805 -9.309855 -2.041681 -0.119595 0.264699 0.108772 0.090999 4.530862 0.218722 0.178462 6.175946 0.220757 0.174062 13.501785 4.546589 -3.255061 5.831874 -7.619129 -2.769734 -4.002939 -71.477588 -5.819900 -43.878839 -118.339639 -52.639161 -0.000001 -0.000000 0.000000 -0.027685 3.634619 -1.990774 -0.000004 0.000003 -3.011611 -5.000174 -7.999918 0.000014 -3.609777 64.855460 4.773514 -33.307318 124.342706 47.616213 -0.000004 0.000000 -0.000001 -0.025409 -3.638210 1.990856 -0.000001 0.000005 3.011600 -5.000144 7.999939 -0.000004 0.956085 -176.602478 5.477965 -179.999991 0.000005 -1.108989 165.940826 -3.647683 -0.864769 0.000000 -0.000003 0.217556 71.503072 6.825286 2.142768 25.456894 -7.366027 -0.000002 3.841306 -177.058611 1.949029 -0.000005 -0.000004 -1.180940 -11.492248 1.653217 0.510511 0.000004 -0.000001 -0.189944 70.398698 -6.840749 -2.188645 25.456923 7.351846 -0.000003 
52.053204 -5.100945 84.031303 -9.278681 -2.038280 -0.111212 0.265822 0.108072 0.090999 4.533282 0.217324 0.178461 6.178365 0.219359 0.174060 13.460902 4.554543 -3.257212 5.829244 -7.644467 -2.771153 -4.030807 -71.473292 -5.850292 -43.888665 -118.360908 -52.662599 0.000000 0.000000 0.000000 -0.027686 3.634619 -1.990773 -0.000001 0.000003 -3.011608 -5.000175 -7.999919 0.000015 -3.566966 64.800928 4.719270 -33.249699 124.388892 47.606179 0.000000 0.000000 -0.000000 -0.025405 -3.638210 1.990856 0.000001 0.000006 3.011599 -5.000143 7.999938 -0.000004 0.918089 -176.605428 5.471184 -179.999991 0.000005 -1.108988 165.936891 -3.649556 -0.864506 -0.000001 -0.000003 0.217556 71.506890 6.825187 2.142816 25.456894 -7.366027 -0.000004 3.799679 -177.061466 1.948193 -0.000005 -0.000004 -1.180460 -11.498466 1.655650 0.511538 0.000004 -0.000001 -0.189944 70.394033 -6.840769 -2.188639 25.456926 7.351844 -0.000003 
52.035503 -5.084124 84.034485 -9.247724 -2.035025 -0.102217 0.267007 0.107445 0.090999 4.535810 0.216072 0.178461 6.180906 0.218107 0.174059 13.418994 4.561506 -3.259391 5.827670 -7.669712 -2.772491 -4.062254 -71.469720 -5.884703 -43.898637 -118.383475 -52.685740 -0.000001 0.000000 -0.000000 -0.027686 3.634620 -1.990775 -0.000001 0.000003 -3.011610 -5.000172 -7.999918 0.000015 -3.520845 64.743056 4.660887 -33.187186 124.437878 47.593803 0.000001 -0.000000 0.000001 -0.025404 -3.638210 1.990859 0.000002 0.000006 3.011601 -5.000142 7.999938 -0.000006 0.880232 -176.607409 5.464723 -179.999991 0.000005 -1.108989 165.932643 -3.651436 -0.864252 -0.000001 -0.000003 0.217556 71.510913 6.825060 2.142751 25.456892 -7.366027 -0.000003 3.758228 -177.064308 1.947352 -0.000005 -0.000004 -1.179980 -11.504683 1.658142 0.512600 0.000004 -0.000001 -0.189944 70.389040 -6.840782 -2.188547 25.456930 7.351847 -0.000003 
52.046204 -5.076178 84.035500 -9.216913 -2.031866 -0.092796 0.268228 0.106870 0.090999 4.538421 0.214924 0.178460 6.183505 0.216957 0.174056 13.376470 4.567788 -3.261598 5.826831 -7.694888 -2.773800 -4.096191 -71.466783 -5.921921 -43.910856 -118.405714 -52.711363 -0.000000 0.000000 -0.000001 -0.027685 3.634619 -1.990775 -0.000001 0.000003 -3.011611 -5.000174 -7.999919 0.000014 -3.472501 64.682718 4.599725 -33.121681 124.488134 47.580382 0.000000 -0.000000 -0.000001 -0.025404 -3.638210 1.990857 0.000000 0.000005 3.011600 -5.000143 7.999937 -0.000006 0.842465 -176.609349 5.458478 -179.999991 0.000005 -1.108989 165.928203 -3.653300 -0.864022 -0.000001 -0.000003 0.217557 71.514929 6.824962 2.142789 25.456892 -7.366026 -0.000004 3.716893 -177.067176 1.946511 -0.000005 -0.000004 -1.179520 -11.510799 1.660673 0.513684 0.000004 -0.000001 -0.189944 70.383829 -6.840756 -2.188663 25.456928 7.351846 -0.000004 
52.057808 -5.082988 84.036896 -9.186184 -2.028765 -0.083132 0.269476 0.106324 0.090999 4.541071 0.213834 0.178460 6.186155 0.215867 0.174054 13.333636 4.573666 -3.263834 5.826406 -7.720019 -2.775076 -4.131587 -71.464215 -5.960770 -43.923697 -118.428199 -52.737431 0.000000 0.000000 0.000001 -0.027685 3.634619 -1.990774 -0.000004 0.000003 -3.011610 -5.000171 -7.999920 0.000013 -3.422954 64.620898 4.537050 -33.054192 124.539921 47.565950 0.000000 0.000000 -0.000000 -0.025406 -3.638210 1.990857 0.000002 0.000006 3.011599 -5.000143 7.999939 -0.000002 0.804749 -176.611330 5.452360 -179.999991 0.000005 -1.108989 165.923750 -3.656145 -0.864039 -0.000001 -0.000003 0.217556 71.518959 6.824859 2.142824 25.456895 -7.366027 -0.000004 3.675634 -177.069034 1.945732 -0.000005 -0.000004 -1.179060 -11.516817 1.663234 0.514781 0.000004 -0.000001 -0.189944 70.378536 -6.840763 -2.188590 25.456924 7.351846 -0.000003 
52.048203 -5.083643 84.034492 -9.155479 -2.025653 -0.073407 0.270724 0.105785 0.090999 4.543730 0.212758 0.178459 6.188814 0.214790 0.174053 13.290702 4.579459 -3.266053 5.826088 -7.745147 -2.776350 -4.167285 -71.461626 -5.999974 -43.936527 -118.450698 -52.763488 0.000001 0.000000 -0.000001 -0.027686 3.634619 -1.990775 -0.000004 0.000003 -3.011610 -5.000173 -7.999919 0.000013 -3.373319 64.558777 4.474209 -32.987382 124.590819 47.552726 0.000000 0.000001 -0.000000 -0.025405 -3.638210 1.990856 0.000002 0.000005 3.011601 -5.000142 7.999938 -0.000004 0.767046 -176.614294 5.446263 -179.999991 0.000005 -1.108988 165.919215 -3.658007 -0.863815 -0.000001 -0.000003 0.217556 71.523091 6.824757 2.142755 25.456892 -7.366028 -0.000003 3.634381 -177.071889 1.944893 -0.000005 -0.000004 -1.178600 -11.522936 1.665805 0.515886 0.000004 -0.000001 -0.189944 70.373119 -6.840767 -2.188625 25.456924 7.351845 -0.000003 
